<?xml version="1.0"  encoding="UTF-8"?>
<svg id="_Слой_2" data-name="Слой 2" xmlns="http://www.w3.org/2000/svg" viewBox="0 0 243.91 438.89">
  <defs>
    <style>
      .cls-1 {
		fill: #fff;
      }
    </style>
  </defs>
  <g id="_Слой_1-2" data-name="Слой 1">
    <path class="cls-1" d="m121.6,438.85c-22.33,0-44.66.08-66.98-.02-18.41-.08-29.86-12.5-28.62-30.78.93-13.71,11.72-24.34,25.47-24.63,12.49-.26,24.99-.21,37.49-.04,3.9.05,5.22-1.21,5.2-5.16-.14-24.99-.14-49.99,0-74.98.02-3.79-1.53-5.15-4.95-6.07C41.77,284.36,7.05,243.99.93,194.93c-1.83-14.67-.61-29.25.57-43.86,1.5-18.58,3.08-37.15,4.64-55.72,2.01-23.88,3.83-47.78,6.16-71.63C13.59,10.65,24.52.87,38.34.56c18.65-.42,37.32-.16,55.98-.11,5.04.01,9.01,2.43,11.81,6.47,5.03,7.25,10.08,14.51,14.71,22.03,5.27,8.57,3.29,16.23-5.77,22.22-11.25,7.45-22.74,14.53-34.13,21.77-3.8,2.41-7.6,4.81-11.39,7.23-9.44,6.03-10.9,14.66-3.65,23.17,12.53,14.71,25.21,29.29,37.85,43.91,11.33,13.11,22.69,26.19,34.03,39.28.65.76,1.29,1.53,1.99,2.24,2.79,2.8,6.04,3.66,9.5,1.54,3.47-2.12,3.46-5.52,2.19-8.86-3.01-7.94-6.17-15.83-9.28-23.73-5.43-13.79-10.94-27.56-16.29-41.38-3.56-9.19-1.73-15.13,6.33-20.78,14.87-10.42,29.79-20.77,44.72-31.11,9.76-6.76,11.15-11.85,6.06-22.4-3.48-7.2-7.02-14.37-10.36-21.64-4.1-8.93.57-18.53,10.21-19.58,9.06-.99,18.33-1.37,27.38.44,11.76,2.35,19.91,11.05,21.18,22.95,1.64,15.39,2.79,30.83,4.1,46.25,1.95,23.05,3.98,46.09,5.73,69.15,1.71,22.54,5.35,45.21-.7,67.57-11.98,44.27-38.33,75.42-83.2,89.15-8.36,2.56-7.72.76-7.73,10.41-.02,23.49.11,46.99-.11,70.48-.05,4.83,1.42,6.32,6.23,6.2,11.49-.31,22.99-.17,34.49-.07,16.35.15,27.52,11.22,27.63,27.19.1,16.25-11.08,28.08-27.28,28.23-22.99.22-45.99.05-68.98.05v.02Z"/>
  </g>
</svg>