<?xml version="1.0" encoding="UTF-8"?>
<svg id="a" data-name="Слой 1" xmlns="http://www.w3.org/2000/svg" viewBox="0 0 512 512">
  <path d="m260.46,344.85c-2.05.86-4.08,2.39-6.16,2.45-5.97.18-11.96-.11-17.93-.47-3.09-.19-4.97-1.02-6.42-4.98-3.13-8.57-2.76-17.65-5.44-26.16-.47-1.51-1.05-3.25-2.15-4.24-8.05-7.19-10.81-16.81-12.96-26.86-2.18-10.19-2.81-20.36-1.04-30.67.21-1.24.17-2.91-.5-3.84-6.91-9.64-9.02-21.39-14.09-31.84-3.54-7.3-6.38-14.96-9.05-22.64-.7-2.03.06-4.82.81-7.03.79-2.33,3-3.08,5.35-2.26,2.4.84,3.21,2.56,2.55,5.14-2.08,8.17.33,14.63,7.27,19.58,3.14,2.24,5.59,5.23,5.63,9.51,0,.74.37,2.06.73,2.12,4.3.74,4.55,4.91,6.56,7.56,2.19,2.88,4.55,5.67,6.43,8.75,1.1,1.8.83,5.22,2.2,5.94,4.07,2.13,2.27,6.09,3.7,8.93,1.95,3.86-.82,5.83-3.28,7.89,4.07.12,4.76,2.4,5.13,6.17.49,4.97,2.13,9.89,3.69,14.69,1.06,3.25,4.1,3.67,7.05,3.22,3.82-.59,6.93.17,8.89,3.76.87,1.6,1.6,1.55,2.3-.04,2.6-5.92,7.06-8.2,13.51-7.9,4.12.19,7.51-3.72,7.98-8.07.46-4.21,1.15-8.15,5.32-10.62.52-.31-.28-2.86-.47-4.37-.79.3-1.61.52-2.35.9-.98.5-1.89,1.13-2.83,1.71-.01-1.25-.35-2.61.03-3.73.86-2.52,2.55-5.03-1.84-5.92-.23-.05-.31-1.79-.13-2.68,1.39-7.01.17-13.66-3.29-19.73-1.94-3.39-2.65-6.8-2.27-10.49,1.28-12.55,2.65-25.08,4.03-37.62.67-6.06,1.44-12.11,2.13-18.17.45-3.88,2.36-6.62,6.28-7.26,1.39-.23,3.16.43,4.36,1.26.42.29.03,2.56-.62,3.47-3.67,5.17-3.77,11.3-4.47,17.16-.28,2.37-.36,6.06,4.21,5.85.55-.03,1.56,1.86,1.71,2.95.48,3.61,1.63,7.53.73,10.84-1.23,4.54.94,8.47.63,12.71-.33,4.64-.49,9.29-.87,13.92-.08,1.04-.65,2.87-1.16,2.93-6,.7-1.81,3.2-.71,4.59,3.43,4.37,5.65,9.16,4.86,14.73-.57,4.09,1.92,6.32,4.47,8.16,1.77,1.27,4.24,2.16,6.75-.05,3.99-3.51,8.02-6.67,10.06-11.99,1.38-3.61,3.94-6.89,6.46-9.91,4.21-5.05,12.98-5.87,17.57-2.1,2.26,1.86,3.12,3.85,1.08,6.36-4.73,5.86-8.45,12.74-16.06,15.66-.7.27-1.67.97-1.75,1.57-.69,5.14-5.08,8.02-7.28,12.2-1.08,2.05-2.28,4.06-3.13,6.21-1.19,3.01-2.56,4.75-5.77,2.12-.47-.38-1.64-.55-2.06-.24-4.43,3.36-8.77,6.83-13.14,10.28-2.61,2.06-5.88,3.86-2.08,7.76.43.44-.05,2.18-.57,3.03-1.8,2.97-3.8,5.81-5.72,8.7-.26.4-.45.84-.67,1.26.54-.13,1.28-.08,1.58-.42,1.81-2.07,3.72-4.1,5.23-6.38,3.63-5.49,6.97-11.17,10.64-16.63.76-1.13,2.33-2.17,3.65-2.35,1.19-.16,2.91.59,3.72,1.53.52.6.26,2.79-.42,3.36-5.99,5.07-7.96,12.54-11.5,19.04-1.94,3.55-4.29,6.15-8.35,7.17-4.17,1.04-8.19,2.76-12.4,3.53-5.54,1.02-10.12-1.01-13.31-5.82-.68-1.03-1.3-2.9-2.68-.72-3.17,5.01-7.88,6.16-13.34,5.74-.75-.06-1.54.3-2.31.47.68.61,1.3,1.63,2.06,1.74,2.44.36,4.94.56,7.41.5,8.79-.22,11.88,2.1,13.91,10.64.5,2.08,1.14,4.12,1.72,6.18.73,4.08,1.46,8.16,2.19,12.25Z" style="fill: #fff; stroke: #000; stroke-miterlimit: 10; stroke-width: 2px;"/>
  <path d="m158.93,343.42c2.79-.18,5.58-.42,8.37-.49.67-.02,1.35.56,2.03.86-.44.45-.82.99-1.32,1.34-2.56,1.8-5.08,3.68-7.77,5.28-2.54,1.52-3.39,3.29-2.19,6.15,3.5,8.4,6.57,17.01,10.45,25.23,1.71,3.63,5.13,6.42,7.5,9.78,4.97,7.05,12.03,11.18,19.62,14.65,5.94,2.72,12.05,4.44,18.65,4.61,2.37.06,4.95.78,7.03,1.93,7.64,4.25,15.12,8.79,22.63,13.27.94.56,1.72,1.37,2.58,2.07-.93.59-1.84,1.22-2.79,1.76-6.71,3.82-14.08,4.08-21.54,4.24-4.45.09-9.46-1.6-12.93,3.07-.12.16-1.59-.23-1.8-.67-1.98-4.17-6.64-3.98-9.89-6.07-.64-.41-2.96.87-3.85,1.93-4.28,5.1-7.75,10.71-9.64,17.18-.37,1.27-.79,2.54-1.35,3.73-.24.5-.91.79-1.39,1.17-.16-.59-.5-1.18-.46-1.75.5-6.93.91-13.88,1.65-20.79.55-5.22-1.6-8.63-6.2-10.65-7.39-3.24-12.34-9.32-17.38-15.18-4.9-5.7-4.71-5.83-12.09-3.09-2.12.79-4.33,1.36-6.49,2.03,1.16-1.84,2.31-3.69,3.47-5.53.09-.14.18-.28.28-.41,3.74-4.71,5.18-9.18,1.62-15.17-3.16-5.32-4.44-11.73-6.94-17.5-4.65-10.71-9.43-21.37-14.44-31.91-3.12-6.57-6.89-12.83-10.12-19.35-1.21-2.45-2.64-5.35-2.38-7.88.77-7.35,2.34-14.62,3.6-21.92.51-3,1.94-2.85,3.46-.82,3.08,4.09,5.88,8.4,9.01,12.45,3.52,4.55,7.21,8.97,11.02,13.28.57.64,2.5.82,3.32.36,2-1.12,3.69-2.78,5.55-4.15.47-.34,1.14-.4,1.72-.59.03.63.21,1.3.07,1.89-.24.96-.59,1.92-1.09,2.78-6.63,11.38-.2,20.98,4.43,30.66.74,1.55,3.82,1.97,5.82,2.91.06-.22.11-.45.17-.67Z" style="fill: #fff; stroke: #000; stroke-miterlimit: 10; stroke-width: 2px;"/>
  <path d="m424.6,304.56c-.3,12.16-2.79,23.75-8.05,34.65-1.41,2.93-1.67,5.48.74,7.65,3.28,2.96,6.79,5.65,10.26,8.38,2.76,2.18,5.61,4.26,8.42,6.39-2.99-.8-5.96-1.66-8.96-2.39-4.01-.98-8.05-1.84-12.07-2.78-4.56-1.07-7.98-.33-11.15,3.94-3.17,4.27-7.45,7.93-11.85,11-11.35,7.92-23.8,13.3-37.6,15.64-12.07,2.04-24.13,4.37-35.98,7.41-9.24,2.37-18.24,5.77-27.14,9.26-4.15,1.62-8.08,1.94-12.1.71-5.38-1.65-10.66-3.64-15.89-5.71-1.2-.48-2.4-1.75-2.86-2.94-.19-.5,1.37-2.09,2.41-2.6,8.16-3.99,16.4-7.83,24.6-11.75,3.1-1.48,6.26-2.89,9.16-4.7.97-.6,1.8-2.43,1.68-3.59-.59-5.75-1.37-11.5-2.39-17.19-.78-4.39-2.03-8.69-3.01-13.04-.17-.74,0-1.55.02-2.33.59.52,1.36.94,1.74,1.58,3.82,6.4,7.46,12.9,11.39,19.22,1.98,3.19,4.45,6.09,6.72,9.1.29.38.8.95,1.13.9,3.39-.45,6.77-1.36,10.16-1.44,3.72-.09,6.48-.97,7.61-4.87.21-.74.83-1.37,1.26-2.05.48.66,1.2,1.27,1.38,2,.57,2.23,1.97,2.99,4.07,2.61,12.03-2.14,23.65-5.77,34.67-10.93,11.47-5.37,18.92-15.18,23.58-26.5,4.63-11.24,9.86-21.82,18.17-30.79,2.32-2.51,3.91-5.7,5.91-8.52.35-.49,1.05-.73,1.58-1.08.35.64.94,1.25,1.02,1.92.51,4.27.91,8.55,1.35,12.83Z" style="fill: #fff; stroke: #000; stroke-miterlimit: 10; stroke-width: 2px;"/>
  <path d="m297.45,116.39c-.77.33-1.42.76-2.13.9-3.23.65-6.45,1.46-9.72,1.77-8.74.83-17.49,1.62-26.25,2.03-3.38.16-4.91,1.13-4.74,4.61.14,2.99.04,5.99-.07,8.99-.03.73-.48,1.45-.73,2.18-.57-.48-1.27-.87-1.7-1.45-3.12-4.14-6.07-8.42-9.35-12.44-1.14-1.4-2.94-2.68-4.65-3.11-3.5-.86-7.17-1.52-10.75-1.44-1.86.05-3.68,1.86-5.52,2.87-.97-2.09-1.77-4.35-4.49-4.76-4.74-.7-9.47-1.47-14.22-2.03-9.55-1.13-19.06-1.89-28.67.03-13.94,2.78-24.59,10.29-32.51,21.81-3.18,4.62-7.43,7.54-12.17,10.21-6.35,3.58-12.48,7.57-18.73,11.33-.78.47-1.77.57-2.66.84.02-.93-.08-1.89.07-2.8,2.27-13.84,7.4-26.36,17.23-36.6,1.51-1.57,1.89-3.02.87-4.83-2.19-3.86-4.25-7.82-6.72-11.5-2.86-4.25-6.11-8.23-9.15-12.36-.36-.49-.45-1.19-.67-1.79.67.13,1.5.07,1.99.44,3.94,2.94,7.68,6.17,11.75,8.91,3.82,2.57,7.94,4.72,12,6.92,2.44,1.32,4.47,1.3,7.1-.69,4.04-3.07,8.78-5.23,13.31-7.61,3.03-1.59,6.47-2.51,9.23-4.45,1.42-.99,1.73-3.56,2.57-5.4.39-.85.84-1.66,1.26-2.49.56.56,1.29,1.03,1.67,1.69,2.21,3.85,5.29,4.11,9.59,3.94,8.74-.35,17.61.02,26.28,1.16,12.36,1.63,24.52,4.79,36.9,6.23,9.16,1.06,18.51.42,27.77.55,1.48.02,3.2-.36,4.4.25,7.97,4.1,15.68,8.61,20.79,16.39.26.4.43.86.82,1.67Z" style="fill: #fff; stroke: #000; stroke-miterlimit: 10; stroke-width: 2px;"/>
  <path d="m324.62,88.49c11.44.52,21.63,4.57,31.41,9.94,3.46,1.9,6.92,3.82,10.33,5.81,2.55,1.49,4.8,1.89,6.81-.92,3.84-5.37,7.78-10.67,11.66-16.01,1.16-1.6,2.23-3.28,3.44-4.84.33-.42,1.04-.54,1.58-.8.02.62.21,1.29.02,1.84-1.9,5.47-3.99,10.88-5.77,16.39-1.37,4.23-2.67,8.54-3.37,12.92-.29,1.81.75,4.07,1.74,5.79,3.79,6.56,8.18,12.81,11.57,19.56,1.64,3.27,3.05,5.16,6.87,4.76,1.28-.13,2.65.67,3.98,1.04-.7,1.07-1.32,2.21-2.13,3.2-.95,1.15-2.23,2.05-3.04,3.28-.66.99-1.46,2.57-1.11,3.45,3.79,9.31,2.97,19.18,3.58,28.83.96,15.25,1.32,30.54,2.19,45.79.24,4.28,1.07,8.58,2.18,12.73,1.27,4.78,1.03,9.31-1.35,13.49-3.01,5.28-6.38,10.37-9.74,15.44-1.68,2.53-2.91,2.18-3.66-.84-3.18-12.82-6.6-25.59-9.63-38.45-.7-2.98-1.62-4.08-4.63-3.2-2.78.81-5.62,1.4-8.46,1.98-.74.15-1.56-.14-2.34-.22.38-.63.63-1.38,1.15-1.86,3.41-3.15,7.01-6.11,10.24-9.43,1.12-1.15,1.89-3.12,1.94-4.75.18-6.15-.17-12.32.03-18.47.11-3.35-.78-5.42-4.27-6.03-1.12-.19-2.21-.72-3.24-1.23-.66-.33-1.19-.94-1.78-1.42.64-.45,1.22-1.04,1.92-1.33,1.06-.43,2.19-.71,3.32-.93,3.29-.65,4.27-2.85,3.92-5.88-1.31-11.48-1.16-23.29-7.04-33.77-1.91-3.4-4.15-6.73-6.79-9.58-6.88-7.41-14.04-14.55-23.89-18.12-1-.36-1.77-1.47-2.53-2.33-5.81-6.53-11.65-13.04-17.35-19.67-1.22-1.42-1.91-3.29-2.85-4.96,1.69-.4,3.38-.8,5.07-1.19Z" style="fill: #fff; stroke: #000; stroke-miterlimit: 10; stroke-width: 2px;"/>
  <path d="m253.52,87.3c-3.26.34-7.27.07-10.79,1.28-6.58,2.25-13.01,1.69-19.58.65-6.52-1.03-13.05-1.93-19.57-2.95-.72-.11-1.39-.58-2.08-.88.38-.68.61-1.56,1.17-2.02,10.14-8.19,21.29-14.32,34.31-16.53,1.3-.22,2.59-.5,3.89-.75,6.01-1.18,6.11-1.28,7.39-7.34,1.38-6.53,2.71-13.06,4.18-19.57.24-1.05,1.07-1.96,1.63-2.94.23.92.53,1.83.69,2.76,1.32,7.32,2.65,14.64,3.9,21.96.54,3.17,2,4.42,5.48,5.05,7.76,1.41,15.38,3.66,22.96,5.91,2.83.84,5.28,1.87,7.7-.71.48-.51,1.5-.52,2.27-.76.11.94.62,2.08.27,2.8-1.67,3.43.13,5.04,2.74,6.87,8.32,5.82,15.23,13.18,21.84,20.84,8.3,9.63,16.39,19.45,25.05,28.74,4.47,4.8,9.73,8.98,15.1,12.8,7.08,5.04,10.47,11.79,11.26,20.17.34,3.63.75,7.26.98,10.89.13,2.04-.8,2.69-2.77,1.71-8.45-4.22-17.01-8.17-23.83-15.05-3.26-3.29-6.97-6.16-10.71-8.91-1.16-.85-3.09-.91-4.65-.85-1.27.04-2.49.86-3.76,1.23-2.18.63-4.38,1.17-6.57,1.75,1.19-1.75,2.4-3.49,3.57-5.25,3.53-5.31,2.41-8.19-1.66-11.36-3.73-2.91-6.7-6.85-9.74-10.55-2.95-3.6-3.83-4.1-7.8-1.55-3.17,2.03-5.98,4.62-9.04,6.84-.84.61-2,.75-3.02,1.11.39-.84.72-1.72,1.18-2.52,2.14-3.71,4.25-7.44,6.52-11.07,1.42-2.28,1.28-3.95-.41-6.24-5.1-6.93-11.31-12.34-18.7-16.78-8.62-5.18-19.18-8.88-29.38-8.79Z" style="fill: #fff; stroke: #000; stroke-miterlimit: 10; stroke-width: 2px;"/>
  <path d="m413.84,233.43c1.16-9.49-2.39-17.97-5.47-26.56-.66-1.84-1.3-3.81-1.33-5.73-.19-9.49-.17-18.97-.21-28.46,0-.62.16-1.24.24-1.85.73.21,1.73.2,2.13.68,2.95,3.55,5.81,7.18,8.64,10.83,1.52,1.96,2.89,4.03,4.41,6,3.11,4.05,3.72,4.16,8.23,2.26,1.86-.78,3.8-1.38,5.71-2.06-.74,1.79-1.45,3.59-2.22,5.36-1.93,4.44-3.99,8.85-1.03,13.65.08.14.15.32.14.47-.58,9.13,5.46,12.1,12.82,13.92,2.56.63,5.08,1.46,7.58,2.3.57.19.99.81,1.48,1.23-.53.27-1.04.66-1.6.78-2.74.57-5.52.96-8.25,1.6-7.75,1.82-8.44,3.26-9,10.87-.51,6.89-1.64,13.82-3.34,20.52-1.17,4.61-1.94,8.58,1.49,12.5,1.93,2.2,1.26,3.55-1.82,3.42-1.66-.07-3.41-.31-4.96.11-1.45.39-3.1,1.26-3.96,2.44-7.21,9.88-13.72,20.32-21.49,29.71-9.59,11.58-17.7,24.03-24.26,37.44-2.13,4.35-5.05,6.96-9.17,8.42-5.46,1.93-11.05,3.5-16.64,5-3.47.93-4.09.29-2.82-3.01,2.85-7.42,5.9-14.76,8.94-22.11,1.33-3.2,3.23-6.11-.45-9.34-1.84-1.61.42-2.04,1.63-1.94,3.02.23,5.42-.57,7.46-2.97,1.09-1.29,1.29-1.71.03-3.11-2.49-2.78-4.54-5.96-6.72-9.01-.45-.64-.64-1.46-.95-2.2.76.05,1.52.09,2.29.14.5.04,1.01.02,1.48.16,14.14,4.13,10.85,2.5,19.1-7.55,4.07-4.97,7.7-10.3,11.57-15.44,6.82-9.06,14.87-17.42,17.63-28.9,1.54-6.39,2.48-12.93,3.69-19.4-.34-.04-.68-.09-1.02-.13Z" style="fill: #fff; stroke: #000; stroke-miterlimit: 10; stroke-width: 2px;"/>
  <path d="m52.33,223.26c-2.49,0-4.99.04-7.48-.03-.61-.02-1.21-.35-1.82-.54.49-.58.87-1.5,1.49-1.7,5.47-1.82,11.05-3.32,16.45-5.3,4.75-1.74,9.39-3.84,13.92-6.09,1.12-.56,1.78-2.26,2.41-3.55,3.97-8.15,6.85-16.87,13.18-23.75.87-.94.95-3.15.59-4.56-.77-3.03-2.11-5.92-3.12-8.9-.28-.83-.21-1.78-.3-2.67.92.22,1.89.3,2.74.67,2.12.92,4.22,1.9,6.25,2.99,3.26,1.74,5.92.69,8.7-1.28,7.25-5.14,14.53-10.24,21.98-15.08,3.57-2.32,7.89-3.54,11.26-6.08,9.61-7.25,19.19-14.6,28.2-22.56,4.23-3.74,8.33-6.2,13.99-6.05,6.09.15,12.19.07,18.28.15,2.32.03,3.24,1,1.46,3-3.82,4.3-7.71,8.54-11.6,12.77-3.03,3.28-6.04,6.59-9.2,9.74-2.09,2.08-4.23,4.2-6.69,5.77-3.98,2.54-4.29,3.16-2.22,7.52.68,1.43,1.03,3.03,1.53,4.55-1.81-.37-3.76-.43-5.38-1.19-3.5-1.65-5.95-1.86-9.68.87-7.7,5.65-16.5,9.75-24.55,14.95-7.07,4.57-14.3,9.16-20.42,14.87-4.61,4.3-7.75,10.25-11.24,15.66-6.57,10.2-7.67,21.6-7.04,33.4.15,2.9-.27,5.98-1.09,8.77-2.4,8.1-5.12,16.1-7.77,24.12-.28.86-.9,1.61-1.36,2.41-.67-.64-1.54-1.17-1.99-1.94-4.44-7.72-6.71-16.22-8-24.91-.9-6.04-.87-12.22-1.1-18.35-.17-4.68-1.2-6.05-6.01-6.64-4.76-.58-9.55-.93-14.33-1.38-.01.12-.02.24-.03.36Z" style="fill: #fff; stroke: #000; stroke-miterlimit: 10; stroke-width: 2px;"/>
  <path d="m289.77,411.02c11.54-.28,22.29-2.88,32.06-9.27,8.59-5.61,18.59-7.02,28.38-8.97,2.11-.42,4.25-.7,6.34-1.18,2.86-.65,2.93.64,1.82,2.6-1.7,3.02-3.16,6.28-5.36,8.89-6.18,7.32-12.1,15.05-21.03,19.35-3.11,1.5-4.1,3.36-2.81,6.72,1.53,4.01,2.68,8.16,3.93,12.27.18.58.04,1.26.04,1.89-.57-.22-1.22-.32-1.69-.67-5.07-3.73-10.07-7.56-15.19-11.22-.89-.64-2.44-1.13-3.38-.81-9.73,3.28-19.74,3.47-29.81,2.98-3.13-.15-6.29-1.26-9.35-.98-1.96.18-3.77,2.09-5.65,3.21-.81.48-1.63.93-2.45,1.4-.38-.87-1.17-1.79-1.08-2.6.53-4.82-2.39-6.68-6.24-8.3-7.01-2.95-13.95-6.09-20.75-9.48-3.36-1.68-6.2-4.41-9.55-6.12-7.97-4.06-16.05-7.95-24.2-11.63-5.99-2.7-12.21-4.88-18.24-7.49-1.91-.83-4.08-1.93-5.2-3.55-4.21-6.08-8.08-12.41-11.98-18.7-.47-.76-.39-1.86-.56-2.81,1.07-.16,2.23-.67,3.2-.43,12.64,3.2,25.35,6.16,37.81,9.96,4.77,1.45,7.11-1.11,10.11-3.27,1.69-1.22,3.35-2.5,5.02-3.75-.35,2.02-.63,4.05-1.07,6.05-1.27,5.82-.37,7.4,4.81,10.26,6.94,3.83,13.44,8.53,20.62,11.81,10.49,4.79,21.34,8.81,32.17,12.79,2.85,1.05,6.2.73,9.32,1.04Z" style="fill: #fff; stroke: #000; stroke-miterlimit: 10; stroke-width: 2px;"/>
  <path d="m129.9,196.8c0,2.5-.13,5,.06,7.49.09,1.19.47,3.05,1.24,3.37,3.72,1.56,1.61,3.9.28,4.82-3.07,2.13-3.54,4.88-3.62,8.18-.06,2.29-.35,4.72-1.18,6.83-1.76,4.45.64,6.89,3.76,9.15.93.68,2.06,1.1,2.96,1.8.58.45.92,1.22,1.37,1.84-.71.27-1.4.71-2.13.78-1.48.15-3.02-.07-4.47.19-2.89.51-4.72,1.66-5.67,5.13-2.6,9.4-6.25,18.51-9.02,27.87-3.38,11.42-7.31,22.82-6.44,35.02.88,12.3,4,23.9,12.22,33.5,5.98,6.98,9.88,15.06,13.35,23.45,1.75,4.25,4.05,8.26,5.87,12.49.6,1.4.45,3.11.65,4.68-1.43-.19-3.03-.02-4.26-.62-10.16-4.91-19.77-10.65-27.08-19.52-2.63-3.19-5.09-6.52-7.64-9.78-3.65-4.67-8.54-5.13-13.83-3.93-4.99,1.14-9.95,2.45-14.94,3.59-.8.18-1.71-.1-2.57-.16.53-.59.97-1.29,1.59-1.75,5.09-3.86,10.28-7.58,15.28-11.53,2.66-2.1,3.43-4.73,2.52-8.39-1.6-6.39-2.54-12.96-3.45-19.5-.34-2.43-1.11-3.7-3.62-3.67-1.16.01-2.34,0-3.48-.2-.75-.13-1.45-.59-2.17-.91.42-.6.75-1.33,1.29-1.78,1.4-1.17,2.78-2.43,4.37-3.28,2.98-1.6,3.91-4.21,4.42-7.28.97-5.86,1.56-11.87,3.33-17.5,3.09-9.86,7.38-19.35,10.37-29.24,2.96-9.79,5.01-19.86,7.32-29.83.63-2.73.74-5.57,1.12-8.36.58-4.19,1.84-7.95,5.3-10.85,4.52-3.8,8.6-8.15,13.24-11.79,3-2.36,3.64-1.79,3.73,2.19.05,2.5,0,4.99,0,7.49-.03,0-.05,0-.08,0Z" style="fill: #fff; stroke: #000; stroke-miterlimit: 10; stroke-width: 2px;"/>
  <path d="m238.41,224.82c.42-2.54.2-5.47,1.41-7.54,1.8-3.07,4.91-4.96,8.84-4.37,3.89.58,6.4,3.22,7.35,6.65,1.28,4.59,1.62,9.43,2.51,14.13,1.14,6.04,2.29,12.08,3.7,18.06,1.28,5.43,3.13,10.72,4.35,16.16,1.92,8.59-3.45,11.19-9.85,10.7-3.24-.25-4.71-2.51-5.14-5.27-1.23-7.78-2.2-15.6-3.26-23.4-.11-.82-.04-1.7-.33-2.44-2.48-6.47-5-12.92-7.57-19.35-.42-1.06-1.15-1.99-1.73-2.98l-.28-.34Z" style="fill: #fff; stroke: #000; stroke-miterlimit: 10; stroke-width: 2px;"/>
  <path d="m238.7,225.16c-.41,8.36.07,16.6,3.15,24.5.12.31.18.73.41.9,2.34,1.75-5.31,3.62.22,5.96,1.59.67,1.44,5.4,2.12,8.26.73,3.06,1.58,6.1,2.23,9.17,1.03,4.83-.2,7.47-3.97,8.89-3.99,1.5-7.51.26-9.19-4.3-1.87-5.08-3.41-10.44-4.04-15.8-1.01-8.52-3.35-16.52-6.9-24.25-.9-1.95-1.64-3.99-2.28-6.04-2.31-7.43.72-12.36,8.42-13.71,3.5-.61,6.64-.52,7.47,4.07.14.77,1.35,1.35,2.07,2.02l.28.34Z" style="fill: #fff; stroke: #000; stroke-miterlimit: 10; stroke-width: 2px;"/>
  <path d="m260.46,344.85c-.73-4.08-1.46-8.16-2.19-12.25-.59-3.57-1.28-7.13-1.73-10.72-.18-1.43.16-2.93.26-4.39,1.29.52,2.55,1.1,3.86,1.55,1.82.62,3.73,1.77,5.49,1.59,5.93-.58,11.79-1.65,16.24-6.31.59-.62,1.68-.75,2.53-1.11.28,1.01,1.09,2.25.76,3-1.94,4.56-.43,8.8.83,13.1.61,2.07,1.34,4.12,1.72,6.24,1.13,6.25-1.74,9.94-7.45,7.89-7.36-2.63-13.63.17-20.32,1.41Z" style="fill: #fff; stroke: #000; stroke-miterlimit: 10; stroke-width: 2px;"/>
</svg>