<svg xmlns:dc="http://purl.org/dc/elements/1.1/" xmlns:cc="http://creativecommons.org/ns#" xmlns:rdf="http://www.w3.org/1999/02/22-rdf-syntax-ns#" xmlns:svg="http://www.w3.org/2000/svg" xmlns="http://www.w3.org/2000/svg" xmlns:xlink="http://www.w3.org/1999/xlink" xmlns:sodipodi="http://sodipodi.sourceforge.net/DTD/sodipodi-0.dtd" xmlns:inkscape="http://www.inkscape.org/namespaces/inkscape" width="600" height="576.29077" viewBox="0 0 480.00002 461.0326" id="svg2" version="1.1" inkscape:version="0.48.0 r9654" sodipodi:docname="Coat of arms of Voronezh Oblast.svg" style="fill-rule:evenodd;">
  
  <defs id="defs1564">
    <linearGradient id="linearGradient9033">
      <stop id="stop9035" offset="0" style="stop-color:#efefef;stop-opacity:1;"/>
      <stop id="stop9037" offset="1" style="stop-color:#b4b4b4;stop-opacity:1;"/>
    </linearGradient>
    <linearGradient id="linearGradient8963">
      <stop style="stop-color:#b4b4b4;stop-opacity:1;" offset="0" id="stop8965"/>
      <stop style="stop-color:#efefef;stop-opacity:1;" offset="1" id="stop8967"/>
    </linearGradient>
    <linearGradient id="linearGradient8922">
      <stop style="stop-color:#feed0d;stop-opacity:1;" offset="0" id="stop8924"/>
      <stop style="stop-color:#ffb714;stop-opacity:1;" offset="1" id="stop8926"/>
    </linearGradient>
    <clipPath clipPathUnits="userSpaceOnUse" id="clipPath8975">
      <path style="fill:#fccd36;fill-rule:evenodd;stroke:#9d9171;stroke-width:0.50003099" d="M 105.891,182.143 C 105.245,181.519 105.087,180.591 104.442,179.966 104.977,179.773 105.247,179.056 105.731,178.777 106.214,178.498 106.911,178.656 107.324,178.262 108.958,176.701 109.972,174.117 109.8,169.573 108.422,167.604 108.121,165.904 110.187,164.796 111.091,165.485 111.147,166.173 112.051,166.862 112.051,172.241 112.051,177.621 112.051,183.001 108.936,183.308 108.137,182.565 108.638,180.289 109.27,179.904 109.542,179.403 109.797,178.83 110.127,178.093 110.346,177.236 110.381,176.351 110.132,178.152 109.054,179.809 107.373,180.869 106.943,181.14 106.373,181.86 105.891,182.143 z" id="path8977" inkscape:connector-curvature="0"/>
    </clipPath>
    <clipPath clipPathUnits="userSpaceOnUse" id="clipPath8983">
      <path style="fill:#fccd36;fill-rule:evenodd;stroke:#9d9171;stroke-width:0.50003099" d="M 199.504,182.143 C 200.15,181.519 200.308,180.591 200.953,179.966 200.418,179.773 200.148,179.056 199.664,178.777 199.181,178.498 198.484,178.656 198.071,178.262 196.437,176.701 195.422,174.117 195.595,169.573 196.973,167.604 197.274,165.904 195.208,164.796 194.304,165.485 194.248,166.173 193.344,166.862 193.344,172.241 193.344,177.621 193.344,183.001 196.459,183.308 197.258,182.565 196.757,180.289 196.125,179.904 195.853,179.403 195.598,178.83 195.268,178.093 195.049,177.236 195.014,176.351 195.263,178.152 196.341,179.809 198.022,180.869 198.452,181.14 199.021,181.86 199.504,182.143 z" id="path8985" inkscape:connector-curvature="0"/>
    </clipPath>
    <clipPath clipPathUnits="userSpaceOnUse" id="clipPath8991">
      <path style="fill:#fccd36;fill-rule:evenodd;stroke:#9d9171;stroke-width:0.50003099" d="M 212.439,211.036 C 211.013,210.74 210.277,210.718 209.639,210.968 209.739,210.128 209.691,209.426 208.607,209.677 209.246,208.534 210.425,207.764 211.85,207.163 214.395,207.162 214.051,207.412 214.192,207.533 213.575,208.245 212.126,209.93 212.439,211.036 z M 221.283,195.78 C 221.922,196.714 222.561,197.647 223.199,198.581 223.13,199.742 223.055,200.902 222.992,202.063 222.844,204.766 222.712,205.308 224.538,206.393 225.718,207.094 225.952,207.8 225.558,208.309 224.179,207.05 223.836,208.035 223.642,209.341 222.978,208.923 222.315,208.506 221.652,208.088 219.182,210.417 216.972,212.1 215.682,211.478 215.354,210.104 215.534,210.786 212.902,210.949 212.656,210.964 212.651,211.182 212.597,211.016 212.213,209.82 213.238,208.852 214.002,207.819 214.186,207.57 214.598,207.319 214.833,207.307 215.253,207.286 215.548,207.666 216.1,207.619 219.901,207.3 220.734,201.788 221.283,195.78 z" id="path8993" inkscape:connector-curvature="0"/>
    </clipPath>
    <clipPath clipPathUnits="userSpaceOnUse" id="clipPath8999">
      <path style="fill:#fccd36;fill-rule:evenodd;stroke:#9d9171;stroke-width:0.50003099" d="M 92.9555,211.036 C 94.3821,210.74 95.1179,210.718 95.756,210.968 95.656,210.128 95.7037,209.426 96.7878,209.677 96.1489,208.534 94.9697,207.764 93.5451,207.163 90.9999,207.162 91.3443,207.412 91.2028,207.533 91.8195,208.245 93.2691,209.93 92.9555,211.036 z M 84.1116,195.78 C 83.4729,196.714 82.8343,197.647 82.1954,198.581 82.2644,199.742 82.3395,200.902 82.4029,202.063 82.5509,204.766 82.683,205.308 80.8566,206.393 79.6769,207.094 79.443,207.8 79.837,208.309 81.216,207.05 81.5587,208.035 81.7532,209.341 82.4165,208.923 83.0798,208.506 83.7431,208.088 86.2125,210.417 88.4232,212.1 89.7127,211.478 90.0405,210.104 89.8604,210.786 92.4933,210.949 92.7385,210.964 92.7443,211.182 92.7975,211.016 93.1821,209.82 92.157,208.852 91.3931,207.819 91.2086,207.57 90.7966,207.319 90.5616,207.307 90.1422,207.286 89.8468,207.666 89.2949,207.619 85.4941,207.3 84.6607,201.788 84.1116,195.78 z" id="path9001" inkscape:connector-curvature="0"/>
    </clipPath>
    <clipPath clipPathUnits="userSpaceOnUse" id="clipPath9007">
      <path style="fill:#ffe82a;fill-rule:evenodd;stroke:#9d9171;stroke-width:0.56692898;display:inline" d="M 129.389,119.622 C 137.077,117.803 144.76,116.333 152.462,116.294 160.16,116.256 167.847,117.692 175.539,119.598 175.888,119.684 176.201,119.932 176.43,120.225 176.658,120.518 176.805,120.873 176.805,121.216 176.805,121.216 176.805,121.216 176.805,121.216 176.805,121.56 176.658,121.828 176.43,121.983 176.201,122.138 175.889,122.164 175.539,122.072 167.847,120.049 160.161,118.493 152.462,118.527 144.758,118.56 137.077,120.134 129.389,122.092 129.035,122.183 128.717,122.151 128.494,121.992 128.27,121.832 128.129,121.56 128.129,121.216 128.129,121.216 128.129,121.216 128.129,121.216 128.129,120.873 128.27,120.522 128.494,120.234 128.717,119.947 129.036,119.706 129.389,119.622 z" id="path9009" inkscape:connector-curvature="0"/>
    </clipPath>
    <clipPath clipPathUnits="userSpaceOnUse" id="clipPath9019">
      <path style="fill:#ffe82a;fill-rule:evenodd;stroke:#9d9171;stroke-width:0.56692898;display:inline" d="M 127.47,111.942 C 135.894,109.925 144.313,108.294 152.753,108.251 161.188,108.209 169.612,109.802 178.041,111.915 178.424,112.011 178.766,112.286 179.017,112.611 179.267,112.935 179.428,113.33 179.428,113.71 179.428,113.71 179.428,113.71 179.428,113.71 179.428,114.092 179.268,114.388 179.017,114.561 178.767,114.733 178.424,114.762 178.041,114.66 169.612,112.415 161.19,110.69 152.753,110.727 144.312,110.764 135.893,112.51 127.47,114.682 127.082,114.782 126.733,114.747 126.488,114.57 126.243,114.393 126.088,114.092 126.088,113.71 126.088,113.71 126.088,113.71 126.088,113.71 126.088,113.33 126.243,112.94 126.488,112.621 126.733,112.302 127.082,112.035 127.47,111.942 z" id="path9021" inkscape:connector-curvature="0"/>
    </clipPath>
    <radialGradient inkscape:collect="always" xlink:href="#linearGradient9033" id="radialGradient9031" cx="53.935162" cy="203.31624" fx="53.935162" fy="203.31624" r="17.78768" gradientTransform="matrix(-0.11497265,0.52013329,-0.71922937,-0.15898204,213.98971,214.96023)" gradientUnits="userSpaceOnUse"/>
    <linearGradient inkscape:collect="always" xlink:href="#linearGradient8922" id="linearGradient5203" gradientUnits="userSpaceOnUse" x1="166.9747" y1="223.709" x2="162.81589" y2="244.14148"/>
    <linearGradient inkscape:collect="always" xlink:href="#linearGradient8922" id="linearGradient5205" gradientUnits="userSpaceOnUse" x1="149.91779" y1="222.19562" x2="154.26495" y2="241.37431"/>
    <linearGradient inkscape:collect="always" xlink:href="#linearGradient8963" id="linearGradient5207" gradientUnits="userSpaceOnUse" x1="94.245811" y1="95.81028" x2="107.39764" y2="85.690704"/>
    <radialGradient inkscape:collect="always" xlink:href="#linearGradient9033" id="radialGradient5209" gradientUnits="userSpaceOnUse" gradientTransform="matrix(2.024367,-0.28587469,0.16370632,1.159306,-276.31656,35.385487)" cx="235.83279" cy="211.80875" fx="235.83279" fy="211.80875" r="14.439306"/>
    <radialGradient inkscape:collect="always" xlink:href="#linearGradient9033" id="radialGradient5211" gradientUnits="userSpaceOnUse" gradientTransform="matrix(0.14595342,-1.1046216,1.786592,0.23606551,-283.57724,230.02943)" cx="56.278671" cy="194.49773" fx="56.278671" fy="194.49773" r="17.78768"/>
    <radialGradient inkscape:collect="always" xlink:href="#linearGradient9033" id="radialGradient5213" gradientUnits="userSpaceOnUse" gradientTransform="matrix(-0.11497265,0.52013329,-0.71922937,-0.15898204,213.98971,214.96023)" cx="53.935162" cy="203.31624" fx="53.935162" fy="203.31624" r="17.78768"/>
  </defs>
  
  <g inkscape:groupmode="layer" id="layer1" inkscape:label="COA" transform="translate(-0.00196173,239.68588)">
    <g id="g4664" transform="matrix(2.077055,0,0,2.077055,-0.00211289,-238.40263)">
      
      
      
      
      <path style="fill:#d9dbdc;fill-rule:evenodd;stroke:#5c5d5e;stroke-width:0.70866102" d="M 121.04784,102.10796 C 119.94784,100.35696 114.11584,105.13996 111.97484,107.10396 109.89984,109.00896 108.35984,110.52296 109.15884,112.15596 109.85984,113.58896 112.48684,111.57996 114.82284,109.47296 116.84684,107.64696 121.86184,103.40296 121.04784,102.10796 z" id="path1250" inkscape:connector-curvature="0"/>
      <path style="fill: #000000;fill-rule:evenodd;stroke:#5c5d5e;stroke-width:1.00005996;stroke-opacity:1" d="M 75.371842,64.125964 155.91784,64.125964 155.91784,148.06696 C 155.91784,152.14096 152.29384,155.47396 147.86284,155.47396 139.39184,155.47396 130.91284,155.13396 122.44784,155.47396 118.43784,155.63596 116.17884,158.47896 115.67084,164.00496 114.89884,160.02796 113.11884,155.47396 108.27184,155.47396 L 83.425842,155.47396 C 78.995842,155.47396 75.371842,152.14096 75.371842,148.06696 L 75.371842,64.125964 z" id="path1252" inkscape:connector-curvature="0"/>
      <path style="fill:#e9e9e9;fill-rule:evenodd;stroke:#5c5d5e;stroke-width:0.623622" d="M 153.71684,153.13996 C 152.24584,154.57496 150.16384,155.47396 147.86284,155.47396 142.43984,155.47396 137.01384,155.33396 131.59084,155.32296 135.56084,146.94296 133.06084,137.76196 128.55684,131.20596 123.17984,123.38296 115.66684,117.41296 110.54484,108.62996 112.18484,106.67796 114.15784,104.94796 116.62084,103.54296 120.70584,106.53996 125.42784,109.70996 129.57184,113.33496 135.24884,118.30196 139.84084,124.12296 140.21784,131.52096 141.92584,134.85396 144.42884,137.94996 146.15584,141.28396 149.03584,146.84196 149.81084,152.09996 153.71684,153.13996 z" id="path1254" inkscape:connector-curvature="0"/>
      <path style="fill:#d9dbdc;fill-rule:evenodd;stroke:#d9dbdc;stroke-width:1.00005996" d="M 114.18984,106.90996 C 114.08684,106.83296 114.05084,106.67396 114.10784,106.55596 114.16584,106.43796 114.29584,106.40396 114.39984,106.48196 L 114.40184,106.48396 114.40184,106.48396 C 116.33184,107.90596 118.89684,109.36196 121.50684,110.84496 124.74384,112.68396 128.05284,114.56296 130.42584,116.51996 132.73984,118.42796 134.50584,120.38096 135.97784,122.38696 137.43284,124.37096 138.59384,126.40096 139.71184,128.49096 139.78484,128.62596 139.68584,128.70796 139.49384,128.67396 139.30084,128.63996 139.08484,128.50096 139.01184,128.36596 137.91884,126.32296 136.78684,124.34296 135.38084,122.42596 133.99084,120.52996 132.32484,118.68696 130.14684,116.89096 127.89684,115.03696 124.66184,113.19896 121.49684,111.40096 118.82784,109.88496 116.20684,108.39596 114.20084,106.91696 L 114.19284,106.91196 114.18984,106.90996 z M 119.11284,112.23496 C 118.99784,112.16696 118.91584,111.99196 118.92884,111.84396 118.94184,111.69696 119.04484,111.63196 119.15984,111.70096 124.02584,114.59996 128.32684,117.58296 131.83684,120.68096 135.38084,123.80896 138.11984,127.05096 139.82684,130.43896 139.89684,130.57996 139.79484,130.65996 139.59784,130.61896 139.40084,130.57796 139.18284,130.43096 139.11284,130.28996 137.49384,127.07496 134.88384,123.98996 131.50284,121.00596 128.08784,117.99196 123.88284,115.07696 119.11284,112.23496 z M 112.66884,108.05796 C 112.59284,107.93096 112.68184,107.84496 112.86584,107.86496 113.04984,107.88496 113.26184,108.00396 113.33784,108.12996 L 113.33884,108.12996 C 113.62784,108.60296 113.94984,109.09396 114.30484,109.59896 114.66084,110.10396 115.04984,110.62096 115.47084,111.14096 117.64884,113.83196 120.76684,116.72696 125.08484,119.14796 128.19784,120.89296 130.94184,122.87996 133.36684,124.95096 135.78784,127.01996 137.88884,129.17196 139.72084,131.25496 139.80784,131.35396 139.76684,131.46996 139.62784,131.51296 139.48984,131.55596 139.30584,131.50996 139.21884,131.41096 137.43684,129.38696 135.39984,127.29796 133.05884,125.29796 130.72184,123.30096 128.07784,121.38696 125.08084,119.70696 121.54184,117.72196 118.76384,115.43096 116.61984,113.17396 116.87884,113.52996 117.14084,113.88596 117.40384,114.24296 119.50884,116.42996 122.12984,118.57096 124.75984,120.71796 128.08684,123.43396 131.42684,126.15996 133.84684,129.05796 L 133.84984,129.06196 C 133.85084,129.06296 133.85184,129.06396 133.85284,129.06596 L 133.85684,129.07196 C 136.80184,132.60096 138.76184,136.38596 140.71184,140.14996 143.38284,145.30596 146.03284,150.42196 151.12084,154.60096 151.21984,154.68196 151.23684,154.83096 151.15984,154.93296 151.08284,155.03596 150.94084,155.05296 150.84184,154.97196 145.46684,150.55796 142.74584,145.30496 140.00384,140.01096 138.08884,136.31396 136.16184,132.59496 133.33084,129.19796 L 133.32984,129.19796 133.32684,129.19396 133.32084,129.18696 C 131.01284,126.42096 127.74484,123.75396 124.48984,121.09596 122.65384,119.59696 120.82184,118.10096 119.15084,116.58296 119.61584,117.20096 120.08184,117.81796 120.54784,118.43396 124.05684,123.07396 127.51984,127.65196 129.70184,131.72996 130.97584,134.11096 131.73484,136.68796 132.49084,139.25896 134.47084,145.98596 136.44084,152.67896 148.00184,154.97296 148.16884,155.00596 148.38584,155.18996 148.48684,155.38396 148.58684,155.57796 148.53384,155.70896 148.36584,155.67596 135.91084,153.20396 133.82084,146.10096 131.71984,138.96196 130.97584,136.43296 130.22984,133.89896 129.00184,131.60596 126.86484,127.61196 123.43884,123.08196 119.96584,118.48996 118.93784,117.12996 117.90584,115.76396 116.89984,114.40496 115.11484,112.54496 113.67084,110.63496 112.84684,108.63096 112.80784,108.53596 112.84584,108.48096 112.92084,108.46196 112.83584,108.32796 112.75284,108.19596 112.67184,108.06496 L 112.67084,108.06096 112.66884,108.05796 z" id="path1256" inkscape:connector-curvature="0"/>
      <path style="fill:#5c5d5e;fill-rule:evenodd;stroke:none" d="M 114.20884,106.31996 C 114.10484,106.24196 114.06784,106.08096 114.12584,105.96196 114.18384,105.84196 114.31584,105.80796 114.42084,105.88696 L 114.42284,105.88796 114.42284,105.88896 C 116.37684,107.32796 118.97184,108.80196 121.61384,110.30296 124.89084,112.16396 128.23884,114.06596 130.64084,116.04596 132.98284,117.97696 134.77084,119.95396 136.25984,121.98396 137.73284,123.99196 138.90784,126.04696 140.03984,128.16196 140.11284,128.29896 140.01384,128.38196 139.81784,128.34696 139.62284,128.31296 139.40484,128.17196 139.33084,128.03496 138.22484,125.96796 137.07884,123.96396 135.65584,122.02296 134.24884,120.10496 132.56284,118.23996 130.35884,116.42196 128.08184,114.54496 124.80784,112.68496 121.60384,110.86496 118.90284,109.33096 116.24984,107.82396 114.21884,106.32696 L 114.21084,106.32196 114.20884,106.31996 z M 119.19084,111.70896 C 119.07484,111.63996 118.99184,111.46296 119.00484,111.31396 119.01784,111.16496 119.12284,111.09896 119.23884,111.16796 124.16384,114.10296 128.51584,117.12196 132.06884,120.25796 135.65584,123.42296 138.42884,126.70496 140.15584,130.13396 140.22684,130.27596 140.12284,130.35796 139.92384,130.31596 139.72484,130.27496 139.50484,130.12496 139.43284,129.98296 137.79384,126.72896 135.15284,123.60596 131.73084,120.58596 128.27484,117.53596 124.01884,114.58596 119.19084,111.70896 z M 112.66984,107.48196 C 112.59184,107.35396 112.68184,107.26596 112.86884,107.28596 113.05484,107.30696 113.26884,107.42696 113.34684,107.55496 L 113.34684,107.55496 C 113.63984,108.03296 113.96484,108.53096 114.32484,109.04096 114.68584,109.55296 115.07884,110.07596 115.50584,110.60196 117.70884,113.32496 120.86484,116.25496 125.23484,118.70596 128.38584,120.47196 131.16384,122.48296 133.61784,124.57896 136.06784,126.67296 138.19384,128.85196 140.04884,130.95896 140.13684,131.05996 140.09484,131.17696 139.95484,131.22096 139.81484,131.26396 139.62784,131.21796 139.53984,131.11696 137.73684,129.06796 135.67484,126.95496 133.30584,124.92996 130.93984,122.90896 128.26384,120.97196 125.23184,119.27096 121.64884,117.26296 118.83784,114.94496 116.66784,112.65896 116.92984,113.01996 117.19484,113.38096 117.46184,113.74196 119.59184,115.95496 122.24484,118.12196 124.90684,120.29496 128.27384,123.04296 131.65384,125.80196 134.10284,128.73596 L 134.10684,128.73996 C 134.10784,128.74096 134.10884,128.74196 134.10984,128.74396 L 134.11384,128.74996 C 137.09384,132.32196 139.07784,136.15296 141.05184,139.96196 143.75384,145.17996 146.43684,150.35896 151.58684,154.58796 151.68684,154.66996 151.70384,154.82096 151.62584,154.92396 151.54884,155.02796 151.40384,155.04596 151.30384,154.96296 145.86384,150.49596 143.10984,145.17896 140.33484,139.82196 138.39684,136.07996 136.44684,132.31596 133.58084,128.87796 L 133.57984,128.87796 133.57684,128.87396 133.57084,128.86596 C 131.23484,126.06696 127.92784,123.36696 124.63284,120.67796 122.77484,119.16096 120.92084,117.64696 119.22984,116.10996 119.69984,116.73496 120.17184,117.35996 120.64284,117.98296 124.19484,122.67996 127.69984,127.31296 129.90784,131.44096 131.19784,133.84996 131.96584,136.45796 132.73084,139.06096 134.73484,145.86896 136.72884,152.64296 148.42984,154.96496 148.59884,154.99796 148.81884,155.18496 148.92084,155.38096 149.02184,155.57696 148.96784,155.70896 148.79884,155.67596 136.19284,153.17396 134.07684,145.98496 131.95084,138.75996 131.19784,136.19996 130.44284,133.63596 129.19984,131.31396 127.03784,127.27296 123.56984,122.68796 120.05484,118.03996 119.01384,116.66396 117.96884,115.28096 116.95184,113.90596 115.14484,112.02296 113.68384,110.08996 112.84984,108.06096 112.80984,107.96596 112.84884,107.90996 112.92384,107.89096 112.83784,107.75596 112.75384,107.62096 112.67284,107.48896 L 112.67084,107.48496 112.66984,107.48196 z" id="path1258" inkscape:connector-curvature="0"/>
      <path style="fill:url(#linearGradient5207);fill-opacity:1;fill-rule:evenodd;stroke:#5c5d5e;stroke-width:0.56692898" d="M 120.54784,101.71596 C 120.50684,99.888964 117.90584,100.53596 116.61984,99.920964 114.16484,98.747964 112.00084,97.225964 111.31584,95.719964 112.90084,86.306964 102.39684,80.697964 91.501842,75.210964 89.328842,75.387964 87.748842,76.979964 86.411842,79.221964 90.515842,90.689964 94.534842,102.34696 104.04484,101.73596 106.65584,103.26996 107.61884,107.08896 107.28684,109.67096 107.05184,111.49696 108.34184,112.62596 109.24084,112.10696 107.62084,110.20096 115.33584,103.03396 120.54784,101.71596 z" id="path1260" inkscape:connector-curvature="0"/>
      <path style="fill:none;stroke:#5c5d5e;stroke-width:0.70866102" d="M 103.83684,101.68396 C 103.61084,100.04396 105.40384,98.366964 106.62884,97.264964 108.66584,95.432964 110.41284,95.490964 111.33084,95.580964" id="path1262" inkscape:connector-curvature="0"/>
      <path style="fill:#c5c7c9;fill-rule:evenodd;stroke:#5c5d5e;stroke-width:0.70866102" d="M 92.077842,71.809964 C 90.977842,70.057964 87.396842,72.364964 85.255842,74.328964 83.180842,76.233964 82.511842,77.747964 83.310842,79.380964 83.811842,80.404964 84.739842,80.445964 86.377842,79.167964 86.784842,78.850964 87.269842,77.603964 88.748842,76.414964 89.596842,75.733964 91.245842,75.366964 91.511842,74.964964 92.243842,73.855964 92.718842,72.828964 92.077842,71.809964 z" id="path1264" inkscape:connector-curvature="0"/>
      <path style="fill:#c5c7c9;fill-rule:evenodd;stroke:#5c5d5e;stroke-width:0.56692898" d="M 83.986842,80.032964 C 83.760842,78.392964 85.953842,75.852964 87.178842,74.749964 89.215842,72.917964 90.647842,72.582964 92.419842,72.307964" id="path1266" inkscape:connector-curvature="0"/>
      
      <path style="fill:none;stroke:#5c5d5e;stroke-width:0.56692898" d="M 107.28684,109.81996 C 107.43484,108.14196 109.29684,105.73596 111.54284,103.74196 113.78884,101.74796 116.42084,100.16496 118.10884,100.13296" id="path1276" inkscape:connector-curvature="0"/>
      <path style="fill: #c5c5c5;fill-rule:evenodd;stroke:none" d="M 75.371842,125.63496 C 75.427842,125.41996 75.483842,125.20596 75.542842,124.98996 78.009842,123.98796 80.369842,123.32396 82.595842,122.90296 82.203842,122.84196 81.813842,122.79796 81.427842,122.77396 81.595842,119.38496 83.837842,117.04596 90.705842,114.98296 90.707842,114.98296 90.709842,114.98196 90.711842,114.98096 90.753842,114.92196 90.796842,115.09096 90.838842,115.03096 87.094842,111.10896 81.441842,110.67296 75.371842,111.27696 L 75.371842,125.63496 z M 114.97984,124.02396 C 116.46084,117.75996 114.74884,113.63496 108.18884,112.80096 101.84984,111.99396 95.104842,113.66196 90.705842,114.98296 83.837842,117.04596 81.595842,119.38496 81.427842,122.77396 81.814842,122.79796 82.205842,122.84296 82.599842,122.90396 86.265842,122.21096 89.562842,122.17496 92.360842,122.37196 97.086842,122.70296 100.84084,124.44996 103.94384,127.14696 104.35884,126.96496 104.78784,126.78596 105.23284,126.60896 108.96884,125.12496 112.07884,123.78696 114.97984,124.02396 z M 129.89784,155.32396 C 127.41284,155.33196 124.93084,155.37496 122.44784,155.47396 118.43784,155.63596 116.17884,158.47896 115.67084,164.00496 114.89884,160.02796 113.11784,155.47396 108.27184,155.47396 L 83.286842,155.47396 C 82.565842,155.47396 81.865842,155.38496 81.199842,155.21996 80.282842,150.85496 82.980842,147.40296 88.622842,144.69596 94.206842,142.01596 103.41484,139.89896 114.11984,138.51396 122.17684,137.47196 128.94484,135.58796 130.80784,146.20996 131.27884,148.89296 130.97484,151.93096 129.89784,155.32396 z M 124.33884,138.03996 C 124.81484,134.46696 124.24584,131.12196 121.85384,128.17296 116.86184,122.01696 112.21984,124.18596 105.62484,126.80496 95.470842,130.83896 93.325842,136.33996 94.583842,142.46496 99.657842,140.88996 106.04384,139.64696 113.52184,138.67896 117.48584,138.16596 121.28184,137.41096 124.33884,138.03996 z M 75.542842,124.98996 C 82.073842,122.33696 87.863842,122.05596 92.360842,122.37196 97.227842,122.71296 101.06584,124.55696 104.22184,127.39396 95.306842,131.35096 93.399842,136.59396 94.570842,142.39996 94.544842,142.43096 94.517842,142.46196 94.490842,142.49296 92.337842,143.16596 90.422842,143.89896 88.762842,144.69596 83.119842,147.40296 80.422842,150.85496 81.338842,155.21896 77.911842,154.36896 75.371842,151.47796 75.371842,148.06696 L 75.371842,125.63496 C 75.427842,125.41996 75.483842,125.20596 75.542842,124.98996 z M 81.343842,155.22096 C 81.918842,155.36296 82.519842,155.44796 83.137842,155.46896 82.519842,155.44796 81.917842,155.36296 81.343842,155.22096 z M 83.144842,155.46896 C 83.231842,155.47196 83.320842,155.47396 83.409842,155.47396 83.320842,155.47396 83.231842,155.47196 83.144842,155.46896 z M 98.672842,113.10196 C 94.926842,107.82896 95.382842,100.61396 92.969842,95.415964 90.197842,89.446964 87.091842,85.087964 80.000842,85.868964 78.414842,86.043964 76.873842,86.491964 75.371842,87.167964 L 75.371842,111.44096 C 81.733842,110.40896 87.259842,110.82696 90.620842,115.00896 90.620842,115.00896 90.620842,115.00896 90.620842,115.00896 90.649842,114.99996 90.677842,114.99096 90.705842,114.98296 92.893842,114.32596 95.662842,113.58296 98.672842,113.10196 z" id="path1278" inkscape:connector-curvature="0"/>
      <path style="color:#000000;fill: #e0e0e0;fill-opacity:1;fill-rule:nonzero;stroke:none;marker:none;visibility:visible;display:inline;overflow:visible;enable-background:accumulate" d="M 98.672842,113.24096 C 94.926842,108.35096 95.382842,101.65996 92.969842,96.839964 90.197842,91.303964 87.091842,87.261964 80.000842,87.986964 78.414842,88.147964 76.874842,88.563964 75.371842,89.189964 L 75.371842,111.70096 C 81.733842,110.74296 87.259842,111.13096 90.620842,115.00896 90.620842,115.00896 90.620842,115.00896 90.620842,115.00896 90.649842,115.00096 90.677842,114.99296 90.705842,114.98496 92.893842,114.37596 95.662842,113.68696 98.672842,113.24096 z" id="path1280" inkscape:connector-curvature="0"/>
      <path style="color:#000000;fill: #e0e0e0;fill-opacity:1;fill-rule:nonzero;stroke:none;marker:none;visibility:visible;display:inline;overflow:visible;enable-background:accumulate" d="M 75.371842,125.63496 C 75.427842,125.42396 75.483842,125.21396 75.542842,125.00196 78.009842,124.01996 80.369842,123.36996 82.595842,122.95696 82.203842,122.89696 81.813842,122.85396 81.427842,122.82996 81.595842,119.50796 83.837842,117.21596 90.705842,115.19296 90.707842,115.19296 90.709842,115.19196 90.711842,115.19096 90.753842,115.13296 88.720842,115.75696 88.763842,115.69896 85.019842,111.85396 81.441842,112.51996 75.371842,113.11196 L 75.371842,125.63496 z" id="path1282" inkscape:connector-curvature="0"/>
      <path style="color:#000000;fill: #e0e0e0;fill-opacity:1;fill-rule:nonzero;stroke:none;marker:none;visibility:visible;display:inline;overflow:visible;enable-background:accumulate" d="M 114.94884,124.26096 C 116.39784,117.99696 115.43084,114.65096 109.00984,113.81696 102.80584,113.01096 98.006842,114.67796 93.700842,115.99896 86.978842,118.06196 83.917842,119.38496 83.753842,122.77396 84.132842,122.79796 84.515842,122.84196 84.900842,122.90396 88.488842,122.21096 89.913842,122.17596 92.651842,122.37096 97.276842,122.70196 101.10984,124.84196 104.14684,127.53896 104.55284,127.35696 104.97284,127.17796 105.40784,127.00096 109.06484,125.51696 112.10884,124.02296 114.94884,124.26096 z" id="path1284" inkscape:connector-curvature="0"/>
      <path style="fill:#ffe82a;fill-rule:evenodd;stroke:none" d="M 83.144842,155.46896 C 83.231842,155.47196 83.320842,155.47396 83.408842,155.47396 83.320842,155.47396 83.231842,155.47196 83.144842,155.46896 z" id="path1286" inkscape:connector-curvature="0"/>
      <path style="fill:#ffe82a;fill-rule:evenodd;stroke:none" d="M 81.342842,155.22596 C 81.918842,155.36496 82.519842,155.44896 83.138842,155.46896 82.519842,155.44896 81.918842,155.36496 81.342842,155.22596 z" id="path1288" inkscape:connector-curvature="0"/>
      <path style="fill: #e0e0e0;fill-opacity:1;fill-rule:evenodd;stroke:none" d="M 75.541842,127.26896 C 82.074842,124.67296 87.863842,124.01596 92.360842,124.32396 97.228842,124.65796 100.35584,124.98896 103.51284,127.76696 94.596842,131.64096 93.399842,136.99096 94.570842,142.67496 94.544842,142.70596 94.517842,142.73596 94.490842,142.76696 92.337842,143.42496 90.422842,144.14296 88.762842,144.92296 83.119842,147.57296 80.422842,150.95196 81.338842,155.22496 77.911842,154.39196 75.371842,151.56196 75.371842,148.22296 L 75.371842,127.89996 C 75.427842,127.68996 75.484842,127.48096 75.541842,127.26896 z" id="path1290" inkscape:connector-curvature="0"/>
      <path style="color:#000000;fill: #e0e0e0;fill-opacity:1;fill-rule:nonzero;stroke:none;marker:none;visibility:visible;display:inline;overflow:visible;enable-background:accumulate" d="M 124.33884,138.03996 C 124.81484,134.46696 124.27384,131.38896 121.91084,128.41796 118.13384,123.66696 115.14784,124.37496 108.55384,126.61696 98.209842,130.13196 95.497842,135.58396 96.756842,141.70896 101.90484,140.50096 106.04384,139.64696 113.52184,138.67896 117.48584,138.16596 121.28284,137.41096 124.33884,138.03996 z" id="path1292" inkscape:connector-curvature="0"/>
      <path style="color:#000000;fill: #e0e0e0;fill-opacity:1;fill-rule:nonzero;stroke:none;marker:none;visibility:visible;display:inline;overflow:visible;enable-background:accumulate" d="M 129.89784,155.32396 C 127.41384,155.33196 124.93084,155.37496 122.44784,155.47396 118.43784,155.63596 116.17884,158.47896 115.67084,164.00496 114.89884,160.02796 113.11884,155.47396 108.27184,155.47396 L 86.637842,155.47396 C 85.917842,155.47396 85.217842,155.38496 84.550842,155.21996 83.633842,150.85496 86.331842,147.40296 91.973842,144.69596 97.557842,142.01596 102.81584,141.09596 113.52184,139.71096 121.57784,138.66796 128.94484,135.58796 130.80784,146.20996 131.27884,148.89296 130.97484,151.93096 129.89784,155.32396 z" id="path1294" inkscape:connector-curvature="0"/>
      
      
      
      <path style="fill:none;stroke:#88898b;stroke-width:0.56692898" d="M 75.371842,125.63496 C 75.427842,125.41996 75.483842,125.20596 75.542842,124.98996 78.009842,123.98796 80.369842,123.32396 82.595842,122.90296 82.203842,122.84196 81.813842,122.79796 81.427842,122.77396 81.595842,119.38496 83.837842,117.04596 90.705842,114.98296 90.707842,114.98296 90.709842,114.98196 90.711842,114.98096 90.753842,114.92196 90.796842,115.09096 90.838842,115.03096 87.094842,111.10896 81.441842,110.67296 75.371842,111.27696 L 75.371842,125.63496 z M 114.86884,124.19196 C 116.34984,117.92796 114.74884,113.63496 108.18884,112.80096 101.84984,111.99396 95.104842,113.66196 90.705842,114.98296 83.837842,117.04596 81.595842,119.38496 81.427842,122.77396 81.814842,122.79796 82.205842,122.84296 82.599842,122.90396 86.265842,122.21096 89.562842,122.17496 92.360842,122.37196 97.086842,122.70296 101.11984,124.72896 104.22284,127.42696 104.63684,127.24396 105.09484,126.95296 105.53884,126.77696 109.47084,125.21996 112.34884,124.19696 114.86884,124.19196 z M 129.89784,155.32396 C 127.41284,155.33196 124.93084,155.37496 122.44784,155.47396 118.43784,155.63596 116.17884,158.47896 115.67084,164.00496 114.89884,160.02796 113.11784,155.47396 108.27184,155.47396 L 83.286842,155.47396 C 82.565842,155.47396 81.865842,155.38496 81.199842,155.21996 80.282842,150.85496 82.980842,147.40296 88.622842,144.69596 94.206842,142.01596 103.41484,139.89896 114.11984,138.51396 122.17684,137.47196 128.94484,135.58796 130.80784,146.20996 131.27884,148.89296 130.97484,151.93096 129.89784,155.32396 z M 124.33884,138.03996 C 124.81484,134.46696 124.24584,131.12196 121.85384,128.17296 116.86184,122.01696 112.21984,124.18596 105.62484,126.80496 95.470842,130.83896 93.325842,136.33996 94.583842,142.46496 99.657842,140.88996 106.04384,139.64696 113.52184,138.67896 117.48584,138.16596 121.28184,137.41096 124.33884,138.03996 z M 75.542842,124.98996 C 82.073842,122.33696 87.863842,122.05596 92.360842,122.37196 97.227842,122.71296 101.06584,124.55696 104.22184,127.39396 95.306842,131.35096 93.399842,136.59396 94.570842,142.39996 94.544842,142.43096 94.517842,142.46196 94.490842,142.49296 92.337842,143.16596 90.422842,143.89896 88.762842,144.69596 83.119842,147.40296 80.422842,150.85496 81.338842,155.21896 77.911842,154.36896 75.371842,151.47796 75.371842,148.06696 L 75.371842,125.63496 C 75.427842,125.41996 75.483842,125.20596 75.542842,124.98996 z M 81.343842,155.22096 C 81.918842,155.36296 82.519842,155.44796 83.137842,155.46896 82.519842,155.44796 81.917842,155.36296 81.343842,155.22096 z M 83.144842,155.46896 C 83.231842,155.47196 83.320842,155.47396 83.409842,155.47396 83.320842,155.47396 83.231842,155.47196 83.144842,155.46896 z M 98.672842,113.10196 C 94.926842,107.82896 95.382842,100.61396 92.969842,95.415964 90.197842,89.446964 87.091842,85.087964 80.000842,85.868964 78.414842,86.043964 76.873842,86.491964 75.371842,87.167964 L 75.371842,111.44096 C 81.733842,110.40896 87.259842,110.82696 90.620842,115.00896 90.620842,115.00896 90.620842,115.00896 90.620842,115.00896 90.649842,114.99996 90.677842,114.99096 90.705842,114.98296 92.893842,114.32596 95.662842,113.58296 98.672842,113.10196 z" id="path1320" inkscape:connector-curvature="0"/>
      
      
      
      <g transform="translate(-37.147158,-57.875036)" id="g1442" style="fill-rule:evenodd">
        <g id="g1444"/>
      </g>
      
      
      
      
      
      
    </g>
  </g>
  
</svg>